HIERARCHY
ROOT Hips
{
    OFFSET 0.0 0.0 0.0
    CHANNELS 6 Xposition Yposition Zposition Zrotation Xrotation Yrotation
    JOINT Spine
    {
        OFFSET 0.0 25.335010047670025 0.0
        CHANNELS 3 Zrotation Xrotation Yrotation
        JOINT LeftUpperArm
        {
            OFFSET 16.372229540129258 25.524455400237052 0.0
            CHANNELS 3 Zrotation Xrotation Yrotation
            JOINT LeftLowerArm
            {
                OFFSET 31.828304997414094 0.0 0.0
                CHANNELS 3 Zrotation Xrotation Yrotation
                End Site
                {
                OFFSET 6.934956540289116 0.0 0.0
                }
            }
        }
        JOINT RightUpperArm
        {
            OFFSET -16.372229540129258 25.524455400237052 0.0
            CHANNELS 3 Zrotation Xrotation Yrotation
            JOINT RightLowerArm
            {
                OFFSET -31.828304997414094 0.0 0.0
                CHANNELS 3 Zrotation Xrotation Yrotation
                End Site
                {
                OFFSET 6.934956540289116 0.0 0.0
                }
            }
        }
    }
    JOINT LeftUpperLeg
    {
        OFFSET 8.996378831507265 0.0 0.0
        CHANNELS 3 Zrotation Xrotation Yrotation
    }
    JOINT RightUpperLeg
    {
        OFFSET -8.996378831507265 0.0 0.0
        CHANNELS 3 Zrotation Xrotation Yrotation
    }
}
MOTION
Frames: 10
Frame Time: 0.03333333333333333
-0.1450874195056616 -0.17367399995001542 -0.09269338241295974 -0.6448900311476639 15.101300802467154 10.380720036274468 -0.0 -0.0 -0.0 179.2709810866131 8.420806164287727 169.79483136105102 -170.27504582104908 55.66498968083646 171.94505606542714 20.039505649499777 3.339130138399487 -174.1425108254717 -130.23588861566222 62.037636368759664 133.77051596188005 107.48614187457062 0.6550927474515631 84.8732961521636 103.00895404382256 -2.874003605786155 123.90052396197228
-0.14497516651003572 -0.17369892845083645 -0.0926233681097791 -0.6303651648849464 15.079909955693045 10.369073150307203 -0.0 -0.0 -0.0 179.27327819973624 8.71107739993941 169.80982719699117 -170.36572965103719 55.3224220214961 172.0529286530151 20.055559129015812 3.23471474164593 -174.09200730284417 -131.39382559701428 61.622851944335906 135.05168808243977 107.43777525429492 0.6387346051383056 84.88052540262049 102.99183418180992 -2.904829897039885 123.89582936420624
-0.14478471947812593 -0.1736844996677042 -0.09260129513592683 -0.6162806285215834 15.069267912037114 10.362496779808156 -0.0 -0.0 -0.0 179.26827181315863 9.251015588825583 169.8573372380694 -170.4975592429601 54.706678635354116 172.22032361624352 20.07329728463273 3.0628072296615363 -174.01795662340015 -131.7306865981382 61.61389750654254 135.39339775979053 107.29983838616285 0.6116743346682341 84.89216525022451 102.96194284445654 -2.954752465385281 123.85564656928389
-0.1446412759460296 -0.1736502148432121 -0.09262231112963307 -0.6033189842746074 15.078889558673323 10.359763235437045 -0.0 -0.0 -0.0 179.2765071088419 9.415949041658356 169.8649588950929 -170.49313941068945 54.55160889939408 172.23144030536162 20.10047134881736 3.0137607288340016 -173.95719352510167 -131.01762040334984 62.044003990226045 134.55942112514538 107.26235926060842 0.5920231645528391 84.90349212800534 102.96189211286412 -2.977774500539101 123.87100100685782
-0.1445808851935358 -0.1736714669983456 -0.09265393234064967 -0.5859033054530646 15.093117280649027 10.36072599084574 -0.0 -0.0 -0.0 179.2812813540497 9.750995534310764 169.878561306495 -170.51499522621668 54.22167847159494 172.28092652652506 20.190434670386605 3.016908949504198 -173.9091496014778 -128.99065091825423 62.78181396122411 132.31195782133238 107.21450621985046 0.565412159568114 84.90868820493903 102.96822104552011 -3.008811377415862 123.8596683838477
-0.14447723851330696 -0.17344109499841204 -0.09294976513721447 -0.572838206771158 15.201576664455525 10.362351338339087 -0.0 -0.0 -0.0 179.25448011903615 11.248443127860321 169.96403107641615 -170.80241091640755 52.83641844046836 172.64732522363454 20.276557284916898 3.66033215672681 -174.03842758159183 -127.2271146561689 63.15361902914767 130.41669061171402 107.320264043178 0.5326199489548923 84.89018128721054 103.05223966467044 -2.9693333670016115 123.89904846272947
-0.14444098045809758 -0.17322044585006097 -0.09321311736152615 -0.5640655072584049 15.285898541081107 10.375491738052215 -0.0 -0.0 -0.0 179.21317729111635 12.208213814061379 170.02611530200286 -171.06223702380063 51.96448403502088 172.9386668811555 20.314054393171883 4.463208629394359 -174.1147681549651 -116.6547833847587 65.9278259759574 118.80074171393717 107.4023119472995 0.5066522735645075 84.87201824590919 103.12429197664605 -2.936270730921011 123.88864007318817
-0.14441827544205585 -0.17312750238582367 -0.09347425960013207 -0.5540360328958878 15.348813663156465 10.414404218959687 -0.0 -0.0 -0.0 179.18206745240892 13.138170411021619 170.02937866107203 -171.36472879548614 51.142422351523486 173.25558963104953 20.232869565663034 4.850248284899755 -174.0673339039871 -104.04328992823852 67.67610341167364 105.13074833653478 107.47116263345319 0.47728402010720633 84.81792632870794 103.18464735777036 -2.9257379506987697 123.75465054947456
-0.1444799743731983 -0.1730746406101865 -0.09359141707188715 -0.5453047286922245 15.375172323387558 10.467861643557379 -0.0 -0.0 -0.0 179.16841281626893 13.688129842596434 170.00275444738728 -171.56309968360623 50.67410633990057 173.45464192120463 20.160431279318008 5.532426348991845 -174.14898474573022 -89.41745536842626 67.79525277747724 89.37079652772239 107.51371779706214 0.444894813062583 84.73956671742218 103.23569544573547 -2.939964791266618 123.55360803140177
-0.14455559658578632 -0.1730439368470396 -0.0936343496498563 -0.534639179076999 15.385913278720004 10.498118729464945 -0.0 -0.0 -0.0 179.14273427706664 14.235137785269014 170.00201427311285 -171.76816039785004 50.19223943071128 173.65847641219165 20.10846141295077 6.23111296350552 -174.35928437919725 -80.03699088322799 66.72830547239253 79.17466035349348 107.5643418544602 0.41095399601441507 84.65972525204312 103.28698251697598 -2.940510862362876 123.42404121495179
